<?xml version="1.0" encoding="utf-8"?>
<!-- Generator: Adobe Illustrator 18.1.1, SVG Export Plug-In . SVG Version: 6.00 Build 0)  -->
<svg version="1.1" id="Layer_1" xmlns="http://www.w3.org/2000/svg" xmlns:xlink="http://www.w3.org/1999/xlink" x="0px" y="0px"
	 viewBox="0 0 385.1 126.3" style="enable-background:new 0 0 385.1 126.3;" xml:space="preserve">
<style type="text/css">
	.st0{fill:#F7941E;stroke:#F7941E;stroke-width:3;stroke-miterlimit:10;}
	.st1{fill:#FFFFFF;stroke:#F7941E;stroke-width:3;stroke-miterlimit:10;}
	.st2{fill:#FFFFFF;}
	.st3{fill:#F7941E;}
</style>
<rect x="89.5" y="14.5" class="st0" width="281.2" height="100"/>
<rect x="15.5" y="14.5" class="st1" width="74" height="100"/>
<g>
	<path class="st2" d="M106.5,70.1c-0.1-2.9,0.4-5.6,1.7-8.3c1.3-2.6,3-5,5.2-7c2.2-2,4.7-3.6,7.6-4.7c2.9-1.1,5.9-1.7,9-1.6v3.8
		c-2.7,0-5.2,0.5-7.5,1.4c-2.4,0.9-4.4,2.2-6.1,3.8c-1.7,1.6-3.1,3.5-4.1,5.6c-1,2.1-1.5,4.5-1.5,6.9v21.5h-4.1V70.1z"/>
	<path class="st2" d="M143.5,38.1h-4.2V32l4.2-4V38.1z M139.3,48.6h4.2v42.9h-4.2V48.6z"/>
	<path class="st2" d="M201.4,91.6h-4.1V70.1c0-2.4-0.5-4.7-1.5-6.9c-1-2.2-2.4-4.1-4.1-5.7c-1.7-1.6-3.8-2.9-6.1-3.9
		c-2.4-0.9-4.9-1.4-7.5-1.4c-2.7,0-5.2,0.5-7.5,1.4c-2.3,0.9-4.4,2.2-6.1,3.9c-1.7,1.6-3.1,3.5-4.1,5.7c-1,2.1-1.5,4.5-1.5,6.9
		c0,2.5,0.5,4.8,1.5,7c1,2.2,2.4,4.1,4.1,5.7c1.7,1.6,3.8,2.9,6.1,3.8c2.3,0.9,4.8,1.4,7.5,1.4c0.9,0,1.7-0.1,2.6-0.2
		c0.8-0.1,1.7-0.3,2.5-0.4c0.2,0.7,0.6,1.5,1,2.4c0.1,0.3,0.2,0.7,0.5,1.1c-1.1,0.3-2.1,0.5-3.2,0.6c-1.1,0.1-2.2,0.2-3.3,0.2
		c-3.2,0-6.2-0.6-9-1.7c-2.9-1.1-5.3-2.7-7.4-4.7c-2.1-2-3.8-4.3-5-6.9c-1.2-2.6-1.9-5.4-1.9-8.4c0-2.8,0.6-5.4,1.8-8
		c1.2-2.6,2.8-4.9,4.9-7c2.1-2,4.5-3.7,7.4-4.9c2.9-1.2,6-1.8,9.3-1.8c3.2,0,6.2,0.6,9,1.7c2.9,1.1,5.4,2.7,7.5,4.7s3.8,4.3,5.1,6.9
		c1.2,2.6,1.9,5.4,1.9,8.3V91.6z"/>
	<path class="st2" d="M252.3,85.3c-2.2,2.1-4.7,3.6-7.5,4.7c-2.9,1.1-5.9,1.6-9,1.6s-6.2-0.6-9-1.7c-2.9-1.1-5.3-2.7-7.4-4.7
		c-2.1-2-3.8-4.3-5-6.9c-1.2-2.6-1.9-5.4-1.9-8.4c0-2.9,0.6-5.7,1.9-8.3c1.2-2.6,2.9-4.9,5-6.9c2.1-2,4.6-3.5,7.4-4.7
		c2.9-1.1,5.9-1.7,9-1.7s6.2,0.6,9,1.7s5.4,2.7,7.5,4.7l-2.8,2.8c-1.8-1.7-3.9-3-6.2-3.9c-2.3-0.9-4.9-1.4-7.6-1.4
		c-2.7,0-5.2,0.5-7.5,1.4c-2.3,0.9-4.4,2.2-6.1,3.9c-1.7,1.6-3.1,3.5-4.1,5.7c-1,2.1-1.5,4.5-1.5,6.9c0,2.5,0.5,4.8,1.5,7
		c1,2.2,2.4,4.1,4.1,5.7c1.7,1.6,3.8,2.9,6.1,3.8c2.3,0.9,4.8,1.4,7.5,1.4c2.6,0,5-0.4,7.3-1.3c2.2-0.9,4.2-2,6-3.5L252.3,85.3z"/>
	<path class="st2" d="M307.3,91.6h-4.1V70.1c0-2.4-0.5-4.7-1.5-6.9c-1-2.2-2.4-4.1-4.1-5.7c-1.7-1.6-3.8-2.9-6.1-3.9
		c-2.4-0.9-4.9-1.4-7.5-1.4c-2.7,0-5.2,0.5-7.5,1.4c-2.3,0.9-4.4,2.2-6.1,3.9c-1.7,1.6-3.1,3.5-4.1,5.7c-1,2.1-1.5,4.5-1.5,6.9
		c0,2.5,0.5,4.8,1.5,7c1,2.2,2.4,4.1,4.1,5.7c1.7,1.6,3.8,2.9,6.1,3.8c2.3,0.9,4.8,1.4,7.5,1.4c0.9,0,1.7-0.1,2.6-0.2
		c0.8-0.1,1.7-0.3,2.5-0.4c0.2,0.7,0.6,1.5,1,2.4c0.1,0.3,0.2,0.7,0.5,1.1c-1.1,0.3-2.1,0.5-3.2,0.6c-1.1,0.1-2.2,0.2-3.3,0.2
		c-3.2,0-6.2-0.6-9-1.7c-2.9-1.1-5.3-2.7-7.5-4.7c-2.1-2-3.8-4.3-5-6.9c-1.2-2.6-1.9-5.4-1.9-8.4c0-2.8,0.6-5.4,1.8-8
		c1.2-2.6,2.8-4.9,4.9-7c2.1-2,4.5-3.7,7.4-4.9c2.9-1.2,6-1.8,9.3-1.8c3.2,0,6.2,0.6,9,1.7c2.9,1.1,5.4,2.7,7.5,4.7s3.8,4.3,5.1,6.9
		c1.2,2.6,1.9,5.4,1.9,8.3V91.6z"/>
	<path class="st2" d="M361.1,70c0.1,3-0.5,5.8-1.8,8.4c-1.2,2.6-3,4.9-5.1,6.9c-2.2,2-4.7,3.5-7.5,4.7c-2.9,1.1-5.9,1.7-9,1.7
		c-3.2,0-6.2-0.6-9-1.7c-2.9-1.1-5.3-2.7-7.5-4.7s-3.8-4.3-5-6.9c-1.2-2.6-1.9-5.4-1.9-8.4c0-2.9,0.6-5.7,1.9-8.3
		c1.2-2.6,2.9-4.9,5-6.9s4.6-3.5,7.5-4.7c2.9-1.1,5.9-1.7,9-1.7c1.1,0,2.2,0.1,3.3,0.2c1.1,0.1,2.2,0.4,3.2,0.6
		c-0.1,0.2-0.2,0.4-0.3,0.6c-0.1,0.2-0.1,0.3-0.2,0.5c-0.2,0.5-0.4,0.9-0.6,1.2c-0.2,0.4-0.3,0.8-0.5,1.2c-0.8-0.2-1.6-0.3-2.5-0.4
		c-0.8-0.1-1.7-0.2-2.6-0.2c-2.7,0-5.2,0.5-7.5,1.4c-2.3,0.9-4.4,2.2-6.1,3.9c-1.8,1.6-3.2,3.5-4.2,5.7c-1,2.1-1.5,4.5-1.5,6.9
		c0,2.5,0.5,4.8,1.5,7c1,2.2,2.4,4.1,4.2,5.8c1.8,1.7,3.8,3,6.2,4c2.4,1,4.9,1.5,7.5,1.5c2.7,0,5.2-0.5,7.5-1.5c2.4-1,4.4-2.3,6.1-4
		c1.7-1.7,3.1-3.6,4.1-5.8c1-2.2,1.5-4.5,1.5-7l-0.1-42l4.2,4V70z"/>
</g>
<g>
	<path class="st3" d="M36.7,64.1c-0.2-4.1,0.6-8.1,2.3-11.9c1.7-3.8,3.9-7.1,6.8-10c2.8-2.9,6.2-5.2,10-6.8
		c3.8-1.7,7.7-2.4,11.8-2.4v5.5c-3.5,0-6.8,0.7-9.9,2c-3.1,1.4-5.8,3.2-8.1,5.5c-2.3,2.3-4.1,5-5.4,8.1s-2,6.4-2,10v31h-5.4V64.1z"
		/>
</g>
<rect x="662.4" y="20" class="st0" width="283.2" height="100"/>
<rect x="590.4" y="20" class="st1" width="74" height="100"/>
<rect x="667.4" y="33.5" style="fill:none;" width="283.2" height="83"/>
<text transform="matrix(1.0828 0 0 1 676.3527 97.0625)" class="st2" style="font-family:'JKAbode-LightDemo'; font-size:86; letter-spacing:5.5;">riacad</text>
<rect x="588.4" y="9" style="fill:none;" width="74" height="100"/>
<text transform="matrix(0.985 0 0 1 608.3474 100.6445)" class="st3" style="font-family:'JKAbode-LightDemo'; font-size:124;">r</text>
</svg>
