<?xml version="1.0" encoding="utf-8"?>
<svg viewBox="0 0 499 217" xmlns="http://www.w3.org/2000/svg">
  <path d="M 280.08 155.602 L 311.147 155.101 L 162.325 17.303 L 15.507 155.603 L 43.067 155.603 L 161.824 45.364 L 280.08 155.602 Z" style="fill: rgb(145, 0, 0);"/>
  <path d="M 368.772 154.6 L 399.839 154.099 L 251.017 16.301 L 207.422 58.894 L 220.451 71.421 L 250.516 44.362 L 368.772 154.6 Z"/>
  <path d="M 457.726 154.54 L 488.793 154.039 L 339.971 16.241 L 296.376 58.834 L 309.405 71.361 L 339.47 44.302 L 457.726 154.54 Z" style="fill: rgb(103, 103, 103);"/>
  <rect x="131.26" y="95.971" width="28.562" height="27.059" style="fill: rgb(145, 0, 0); stroke-linejoin: round;"/>
  <rect x="163.576" y="95.971" width="28.562" height="27.059" style="fill: rgb(145, 0, 0); stroke-linejoin: round;"/>
  <rect x="130.888" y="127.544" width="28.562" height="27.059" style="fill: rgb(145, 0, 0); stroke-linejoin: round;"/>
  <rect x="163.204" y="127.544" width="28.562" height="27.059" style="fill: rgb(145, 0, 0); stroke-linejoin: round;"/>
  <path d="M 35.842 194.176 L 24.554 194.176 L 22.514 202.676 L 10.002 202.676 L 22.514 163.916 L 38.494 163.916 L 50.462 202.676 L 37.882 202.676 Z M 30.13 172.28 L 26.118 186.628 L 34.21 186.628 L 30.402 172.28 Z" style="white-space: pre;"/>
  <path d="M 65.007 174.388 Q 65.007 175.816 66.469 176.632 Q 67.931 177.448 71.059 178.4 Q 74.799 179.624 77.213 180.78 Q 79.627 181.936 81.429 184.384 Q 83.231 186.832 83.231 190.776 Q 83.231 203.424 66.775 203.424 Q 64.055 203.424 60.145 202.948 Q 56.235 202.472 53.039 201.724 Q 53.175 200.296 53.617 197.542 Q 54.059 194.788 54.467 193.428 Q 56.847 193.768 61.641 194.244 Q 66.435 194.72 68.883 194.72 Q 70.311 194.72 70.583 194.516 Q 70.991 194.244 71.229 193.598 Q 71.467 192.952 71.467 192.476 Q 71.467 191.116 70.175 190.402 Q 68.883 189.688 65.755 188.668 Q 62.015 187.512 59.567 186.288 Q 57.119 185.064 55.283 182.48 Q 53.447 179.896 53.447 175.68 Q 53.447 172.688 54.807 169.798 Q 56.167 166.908 57.595 165.888 Q 58.683 165.14 62.083 164.46 Q 65.483 163.78 68.475 163.78 Q 76.091 163.78 80.919 165.208 Q 80.851 166.568 80.477 168.948 Q 80.103 171.328 79.695 173.3 L 78.131 173.232 Q 69.291 172.62 66.843 172.62 Q 65.823 172.62 65.687 172.688 Q 65.415 172.824 65.211 173.3 Q 65.007 173.776 65.007 174.388 Z" style="white-space: pre;"/>
  <path d="M 107.775 203.56 Q 97.643 203.56 92.577 198.766 Q 87.511 193.972 87.511 183.364 Q 87.511 172.96 93.087 168.2 Q 98.663 163.44 107.843 163.44 Q 127.155 163.44 127.155 182.684 Q 127.155 192.408 122.429 197.984 Q 117.703 203.56 107.775 203.56 Z M 107.503 195.536 Q 109.407 195.536 110.699 194.89 Q 111.991 194.244 112.739 192.612 Q 114.167 189.824 114.167 183.5 Q 114.167 177.312 112.739 174.524 Q 111.311 171.668 107.503 171.532 Q 106.075 171.532 104.545 171.838 Q 103.015 172.144 102.607 172.688 Q 101.791 173.64 101.349 176.734 Q 100.907 179.828 100.907 183.5 Q 100.907 189.212 101.995 191.864 Q 102.743 193.836 104.103 194.686 Q 105.463 195.536 107.503 195.536 Z" style="white-space: pre;"/>
  <path d="M 163.001 201.384 Q 160.485 202.472 157.153 202.948 Q 153.821 203.424 150.965 203.424 Q 141.717 203.424 136.481 198.596 Q 131.245 193.768 131.245 183.772 Q 131.245 173.572 136.753 168.506 Q 142.261 163.44 152.257 163.44 Q 157.017 163.44 162.185 164.732 Q 162.185 166.092 161.913 168.778 Q 161.641 171.464 161.369 172.552 L 157.085 172.552 Q 152.393 172.552 149.707 172.722 Q 147.021 172.892 146.477 173.368 Q 145.457 174.32 144.913 177.21 Q 144.369 180.1 144.369 182.752 Q 144.369 187.376 145.525 189.858 Q 146.681 192.34 148.449 193.156 Q 150.149 193.972 154.093 193.972 Q 157.221 193.972 162.253 193.428 Z" style="white-space: pre;"/>
  <path d="M 167.548 163.916 L 179.788 163.916 L 179.788 202.676 L 167.548 202.676 Z" style="white-space: pre;"/>
  <path d="M 202.292 163.712 Q 207.8 163.712 211.608 164.732 Q 215.416 165.752 217.694 168.642 Q 219.972 171.532 219.972 176.904 Q 219.972 179.284 219.258 181.766 Q 218.544 184.248 217.49 186.084 Q 216.436 187.92 215.62 188.464 Q 214.668 189.144 211.404 189.518 Q 208.14 189.892 203.72 189.892 Q 202.156 189.892 198.892 189.756 L 198.892 202.676 L 186.652 202.676 L 186.652 163.916 Q 193.792 163.712 202.292 163.712 Z M 207.392 181.188 Q 208.072 180.304 208.072 177.652 Q 208.072 174.184 206.61 172.756 Q 205.148 171.328 201.544 171.328 Q 200.32 171.328 198.892 171.532 L 198.892 181.868 Q 199.572 181.936 201.544 181.936 Q 206.78 181.936 207.392 181.188 Z" style="white-space: pre;"/>
  <path d="M 259.616 202.676 L 246.764 202.676 L 244.452 192.884 Q 244.316 192.34 244.01 191.014 Q 243.704 189.688 243.296 189.042 Q 242.888 188.396 242.14 188.192 Q 240.236 188.26 236.564 188.26 L 236.564 202.676 L 224.324 202.676 L 224.324 164.256 Q 232.552 163.644 239.692 163.644 Q 246.152 163.644 250.164 164.698 Q 254.176 165.752 256.182 168.302 Q 258.188 170.852 258.188 175.272 Q 258.188 179.42 256.284 181.766 Q 254.38 184.112 250.164 184.588 L 250.164 184.996 Q 252.544 185.2 254.142 186.526 Q 255.74 187.852 256.284 189.892 Z M 236.564 180.576 Q 237.176 180.644 238.944 180.644 Q 244.18 180.644 245.064 179.76 Q 245.88 178.944 245.88 175.952 Q 245.88 173.164 244.418 172.144 Q 242.956 171.124 239.624 171.124 Q 238.876 171.124 236.564 171.26 L 236.564 180.576 Z" style="white-space: pre;"/>
  <path d="M 282.681 203.56 Q 272.549 203.56 267.483 198.766 Q 262.417 193.972 262.417 183.364 Q 262.417 172.96 267.993 168.2 Q 273.569 163.44 282.749 163.44 Q 302.061 163.44 302.061 182.684 Q 302.061 192.408 297.335 197.984 Q 292.609 203.56 282.681 203.56 Z M 282.409 195.536 Q 284.313 195.536 285.605 194.89 Q 286.897 194.244 287.645 192.612 Q 289.073 189.824 289.073 183.5 Q 289.073 177.312 287.645 174.524 Q 286.217 171.668 282.409 171.532 Q 280.981 171.532 279.451 171.838 Q 277.921 172.144 277.513 172.688 Q 276.697 173.64 276.255 176.734 Q 275.813 179.828 275.813 183.5 Q 275.813 189.212 276.901 191.864 Q 277.649 193.836 279.009 194.686 Q 280.369 195.536 282.409 195.536 Z" style="white-space: pre;"/>
  <path d="M 357.476 202.676 L 346.052 202.676 L 345.168 181.324 Q 344.964 175 344.692 171.736 L 344.488 171.736 Q 343.672 174.32 342.584 179.76 L 342.244 181.46 L 337.552 202.676 L 326.128 202.676 L 322.184 183.568 L 321.504 180.168 Q 320.076 173.844 319.532 171.736 L 319.328 171.736 Q 319.056 175.136 318.852 182.82 Q 318.784 183.296 318.784 184.316 L 318.172 202.676 L 306.68 202.676 L 308.312 163.916 L 327.76 163.916 L 331.092 180.644 L 331.908 185.132 Q 332.452 183.024 332.928 180.44 L 336.056 163.916 L 355.912 163.916 Z" style="white-space: pre;"/>
  <path d="M 385.905 194.176 L 374.617 194.176 L 372.577 202.676 L 360.065 202.676 L 372.577 163.916 L 388.557 163.916 L 400.525 202.676 L 387.945 202.676 Z M 380.193 172.28 L 376.181 186.628 L 384.273 186.628 L 380.465 172.28 Z" style="white-space: pre;"/>
  <path d="M 415.274 187.036 L 415.274 202.676 L 403.918 202.676 L 403.918 163.916 L 415.41 163.916 L 425.678 179.556 Q 427.99 183.024 429.214 185.404 L 429.418 185.404 L 429.418 178.876 L 429.418 163.916 L 440.706 163.916 L 440.706 202.676 L 429.146 202.676 L 418.606 186.356 L 415.546 181.732 L 415.342 181.732 Z" style="white-space: pre;"/>
  <path d="M 472.256 163.44 Q 480.824 163.44 484.734 168.2 Q 488.644 172.96 488.644 182.616 Q 488.644 192.952 484.156 198.188 Q 479.668 203.424 471.44 203.424 Q 468.108 203.424 465.184 203.084 Q 462.26 202.744 460.628 202.2 L 461.92 194.992 Q 465.592 195.264 467.088 195.264 Q 471.916 195.264 474.398 193.53 Q 476.88 191.796 477.288 187.104 Q 475.248 188.26 472.936 188.872 Q 470.624 189.484 468.788 189.484 Q 461.648 189.484 459.166 185.608 Q 456.684 181.732 456.684 177.108 Q 456.684 170.852 460.526 167.146 Q 464.368 163.44 472.256 163.44 Z M 477.016 180.712 Q 477.152 179.488 477.152 178.74 Q 477.152 175.884 475.996 173.844 Q 474.84 171.804 472.528 171.804 Q 467.904 171.804 467.904 176.972 Q 467.904 179.352 468.788 180.576 Q 469.4 181.256 472.188 181.256 Q 474.704 181.256 477.016 180.712 Z" style="white-space: pre;"/>
</svg>