<svg id="Capa_1" data-name="Capa 1" xmlns="http://www.w3.org/2000/svg" viewBox="0 0 361.92 150.95">
	<defs>
		<style>
			.cls-1{
				fill:#be1622;
			}
			.cls-2{
				fill:#000000;
			}
			.cls-3{
				fill:#575756;
			}
		</style>
	</defs>
		<title>asociproman9_2021</title>
			<polygon class="cls-1" name="casa1" points="226.34 102.64 205.41 102.64 115.02 19.4 26.43 102.64 6.51 102.64 116.43 0 226.34 102.64"/>
			<polygon class="cls-2" name="casa2" points="292.34 102.64 271.4 102.64 181.02 19.4 159.18 39.92 149.43 30.82 182.43 0 292.34 102.64"/>
			<polygon class="cls-3" name="casa3" points="358.34 102.64 337.4 102.64 247.02 19.4 225.18 39.92 215.43 30.82 248.43 0 358.34 102.64"/>
			<rect class="cls-1" name="vent1" x="93.06" y="56.85" width="21.57" height="21.57" rx="2.94"/>
			<rect class="cls-1" name="vent2" x="117.06" y="56.85" width="21.57" height="21.57" rx="2.94"/>
			<rect class="cls-1" name="vent3" x="93.06" y="81.26" width="21.57" height="21.57" rx="2.94"/>
			<rect class="cls-1" name="vent4" x="117.06" y="81.26" width="21.57" height="21.57" rx="2.94"/>
			<path class="cls-2" name="letra1" d="M38,126.41l10,32h-8l-2-6.58H27.62l-2,6.58H19l10.25-32Zm-8.56,19.5h6.78l-3.36-11.23Z" transform="translate(-19.04 -7.94)"/>
			<path class="cls-2" name="letra2" d="M73.53,133.44l-6.37,2.14a5.23,5.23,0,0,0-5.45-3.8q-4.44,0-4.44,2.88a2.57,2.57,0,0,0,.83,2A8.3,8.3,0,0,0,61.85,138,36.61,36.61,0,0,1,69,140a9.13,9.13,0,0,1,3.83,3.24,8.54,8.54,0,0,1,1.56,5,10,10,0,0,1-3.34,7.5q-3.33,3.17-9.89,3.17a15.07,15.07,0,0,1-8.37-2.24A10.64,10.64,0,0,1,48.24,150l6.94-1.57q1.17,4.49,6.5,4.48a6.1,6.1,0,0,0,3.84-1,2.94,2.94,0,0,0,1.26-2.38,2.48,2.48,0,0,0-1.15-2.18,13.78,13.78,0,0,0-4.42-1.45q-6.1-1.26-8.71-3.46A7.9,7.9,0,0,1,49.91,136a9.49,9.49,0,0,1,3.1-7.19,11.77,11.77,0,0,1,8.42-2.93Q70.84,125.92,73.53,133.44Z" transform="translate(-19.04 -7.94)"/>
			<path class="cls-2" name="letra3" d="M91.31,158.9a11.64,11.64,0,0,1-10-4.86,19.35,19.35,0,0,1-3.54-11.74,18.67,18.67,0,0,1,3.59-11.69q3.57-4.7,10.21-4.69t10.1,5a19.9,19.9,0,0,1,3.41,11.45,19.28,19.28,0,0,1-3.51,11.74Q98,158.9,91.31,158.9ZM91.52,132q-5.89,0-5.89,10.36t5.89,10.38q5.7,0,5.71-10.36T91.52,132Z" transform="translate(-19.04 -7.94)"/>
			<path class="cls-2" name="letra4" d="M135.78,138.32l-7.85.49q-.17-6.78-5.28-6.77-5.88,0-5.88,10.43c0,4,.54,6.73,1.6,8.16a5.24,5.24,0,0,0,4.46,2.15q4.65,0,5.69-6.05l7.26.45q-.71,5.74-4.28,8.73a14.31,14.31,0,0,1-19.07-1.4q-4-4.38-4-12.11,0-7.25,3.85-11.86a12.93,12.93,0,0,1,10.5-4.62Q134.32,125.92,135.78,138.32Z" transform="translate(-19.04 -7.94)"/>
			<path class="cls-2" name="letra5" d="M147.57,126.41v32h-7.48v-32Z" transform="translate(-19.04 -7.94)"/>
			<path class="cls-2" name="letra6" d="M161.61,146.52V158.4H154v-32H166.6a18.05,18.05,0,0,1,6.46.9,9.58,9.58,0,0,1,4,3.23,9.08,9.08,0,0,1,1.76,5.69,12,12,0,0,1-.93,4.62,8.37,8.37,0,0,1-2.65,3.54,9.66,9.66,0,0,1-3.32,1.71,21.75,21.75,0,0,1-5,.42Zm-.26-5.81h4.88c1.86,0,3.16-.43,3.91-1.29a4.36,4.36,0,0,0,1.13-2.95,4,4,0,0,0-1.26-3.1,5.49,5.49,0,0,0-3.81-1.15h-4.85Z" transform="translate(-19.04 -7.94)"/>
			<path class="cls-2" name="letra7" d="M190.51,145.72V158.4H183v-32H197a17.87,17.87,0,0,1,6.25.9,8,8,0,0,1,3.9,3.32,9.73,9.73,0,0,1,1.55,5.36q0,5.76-5.56,8.27l5.91,14.14h-8.28l-4.91-12.68Zm0-13.61v8.15h4.59a12.2,12.2,0,0,0,3.27-.31,3.59,3.59,0,0,0,1.82-1.41A4.14,4.14,0,0,0,201,136a3.88,3.88,0,0,0-.79-2.39,3.32,3.32,0,0,0-1.74-1.3,16.69,16.69,0,0,0-3.51-.24Z" transform="translate(-19.04 -7.94)"/>
			<path class="cls-2" name="letra8" d="M225.89,158.9a11.63,11.63,0,0,1-10-4.86,19.35,19.35,0,0,1-3.54-11.74,18.73,18.73,0,0,1,3.58-11.69q3.58-4.7,10.21-4.69t10.11,5a19.9,19.9,0,0,1,3.41,11.45,19.22,19.22,0,0,1-3.52,11.74Q232.63,158.9,225.89,158.9ZM226.1,132q-5.9,0-5.9,10.36t5.9,10.38q5.7,0,5.7-10.36T226.1,132Z" transform="translate(-19.04 -7.94)"/>
			<path class="cls-2" name="letra9" d="M258.73,158.4l-7.89-26.08V158.4h-6.29v-32h11.67l5.62,19.15,5.91-19.15h11.7v32h-7.54V132.32l-8.05,26.08Z" transform="translate(-19.04 -7.94)"/>
			<path class="cls-2" name="letra10" d="M301.55,126.41l10,32h-8.05l-2-6.58H291.19l-2,6.58h-6.57l10.25-32ZM293,145.91h6.78l-3.36-11.23Z" transform="translate(-19.04 -7.94)"/>
			<path class="cls-2" name="letra11" d="M339.62,126.41v32h-6.4L320.7,136.79c0,.55,0,.91.05,1.08a13.12,13.12,0,0,1,.09,1.39V158.4H315v-32h8.07L334,145.28c-.09-.94-.14-1.65-.14-2.13V126.41Z" transform="translate(-19.04 -7.94)"/>
			<path class="cls-2" name="letra12" d="M363.83,149.92a4.13,4.13,0,0,0,4.25,3.37,4.91,4.91,0,0,0,3.8-1.8c1.05-1.2,1.61-4,1.67-8.41a8.84,8.84,0,0,1-7.14,3.3,9.75,9.75,0,0,1-7.07-2.72,9.41,9.41,0,0,1-2.8-7.08,10.07,10.07,0,0,1,3.17-7.71,12.09,12.09,0,0,1,8.57-3,12.66,12.66,0,0,1,6.74,1.76,11.16,11.16,0,0,1,4.41,5.61A23.32,23.32,0,0,1,381,142a21,21,0,0,1-3.3,12.07q-3.32,4.88-9.89,4.88-8.46,0-10.5-7.79Zm4.59-18.68a4.43,4.43,0,0,0-3.43,1.49,4.89,4.89,0,0,0-1.35,3.38,5,5,0,0,0,1.28,3.38,4.31,4.31,0,0,0,3.41,1.45,4.5,4.5,0,0,0,3.49-1.5,4.87,4.87,0,0,0,0-6.74A4.45,4.45,0,0,0,368.42,131.24Z" transform="translate(-19.04 -7.94)"/>
</svg>