<?xml version="1.0" encoding="utf-8"?>
<!-- Generator: Adobe Illustrator 24.0.0, SVG Export Plug-In . SVG Version: 6.00 Build 0)  -->
<svg version="1.1" id="Capa_1" xmlns="http://www.w3.org/2000/svg" xmlns:xlink="http://www.w3.org/1999/xlink" x="0px" y="0px"
	 viewBox="0 0 1877.77 418.21" xml:space="preserve">
<style type="text/css">
	.st0{fill:#F5941C;}
	.st1{fill:#FFFFFF;}
	.st2{fill:#575759;}
</style>
<circle id="circleo" class="st0" cx="220.52" cy="207.97" r="193.12"/>
<circle id="circlew" class="st1" cx="219.61" cy="188.29" r="160.95"/>
<g id="Rcircleo">
	<path class="st0" d="M346.5,287.2h-40.58l-24.39-40.36c-1.82-3.06-3.57-5.8-5.25-8.2c-1.68-2.41-3.37-4.47-5.09-6.18
		c-1.71-1.71-3.5-3.02-5.36-3.94c-1.86-0.91-3.88-1.37-6.07-1.37h-9.52v60.05h-35.33V130.36h56c38.06,0,57.09,14.22,57.09,42.66
		c0,5.47-0.84,10.52-2.52,15.15c-1.68,4.63-4.05,8.8-7.11,12.52s-6.76,6.93-11.1,9.63c-4.34,2.7-9.17,4.81-14.49,6.34v0.44
		c2.33,0.73,4.59,1.91,6.78,3.55s4.3,3.55,6.34,5.74c2.04,2.19,3.99,4.54,5.85,7.05s3.55,4.98,5.09,7.38L346.5,287.2z
		 M250.25,156.83v43.64h15.31c7.58,0,13.67-2.19,18.27-6.56c4.67-4.45,7-9.95,7-16.52c0-13.71-8.2-20.56-24.61-20.56H250.25z"/>
</g>
<g id="Rcirclew">
	<path class="st2" d="M83.42,101.91H124l24.39,40.36c1.82,3.06,3.57,5.8,5.25,8.2c1.68,2.41,3.37,4.47,5.09,6.18
		c1.71,1.71,3.5,3.02,5.36,3.94c1.86,0.91,3.88,1.37,6.07,1.37h9.52v-60.05H215v156.84h-56c-38.06,0-57.09-14.22-57.09-42.66
		c0-5.47,0.84-10.52,2.52-15.15c1.68-4.63,4.05-8.8,7.11-12.52s6.76-6.93,11.1-9.63c4.34-2.7,9.17-4.81,14.49-6.34v-0.44
		c-2.33-0.73-4.59-1.91-6.78-3.55s-4.3-3.55-6.34-5.74c-2.04-2.19-3.99-4.54-5.85-7.05s-3.55-4.98-5.09-7.38L83.42,101.91z
		 M179.67,232.28v-43.64h-15.31c-7.58,0-13.67,2.19-18.27,6.56c-4.67,4.45-7,9.95-7,16.52c0,13.71,8.2,20.56,24.61,20.56H179.67z"/>
</g>
<g>
	<g>
		<path class="st2" d="M662.89,349.23h-61.77l-37.13-61.44c-2.78-4.66-5.44-8.82-7.99-12.49c-2.55-3.66-5.14-6.8-7.74-9.41
			c-2.61-2.61-5.33-4.61-8.16-5.99c-2.83-1.39-5.91-2.08-9.24-2.08h-14.49v91.41h-53.78V110.46h85.25
			c57.94,0,86.91,21.65,86.91,64.94c0,8.33-1.28,16.01-3.83,23.06c-2.55,7.05-6.16,13.4-10.82,19.06
			c-4.66,5.66-10.3,10.55-16.9,14.65c-6.61,4.11-13.96,7.33-22.06,9.66v0.67c3.55,1.11,6.99,2.91,10.32,5.41
			c3.33,2.5,6.55,5.41,9.66,8.74c3.11,3.33,6.08,6.91,8.91,10.74s5.41,7.58,7.74,11.24L662.89,349.23z M516.37,150.76v66.43h23.31
			c11.54,0,20.81-3.33,27.81-9.99c7.1-6.77,10.66-15.15,10.66-25.14c0-20.87-12.49-31.3-37.46-31.3H516.37z"/>
		<path class="st0" d="M861.64,349.23h-61.77l-37.13-61.44c-2.78-4.66-5.44-8.82-7.99-12.49c-2.55-3.66-5.14-6.8-7.74-9.41
			c-2.61-2.61-5.33-4.61-8.16-5.99c-2.83-1.39-5.91-2.08-9.24-2.08h-14.49v91.41h-53.78V110.46h85.25
			c57.94,0,86.91,21.65,86.91,64.94c0,8.33-1.28,16.01-3.83,23.06c-2.55,7.05-6.16,13.4-10.82,19.06
			c-4.66,5.66-10.3,10.55-16.9,14.65c-6.61,4.11-13.96,7.33-22.06,9.66v0.67c3.55,1.11,6.99,2.91,10.32,5.41
			c3.33,2.5,6.55,5.41,9.66,8.74c3.11,3.33,6.08,6.91,8.91,10.74s5.41,7.58,7.74,11.24L861.64,349.23z M715.12,150.76v66.43h23.31
			c11.54,0,20.81-3.33,27.81-9.99c7.1-6.77,10.66-15.15,10.66-25.14c0-20.87-12.49-31.3-37.46-31.3H715.12z"/>
		<path class="st2" d="M867.84,342.94v-36.57c6.63,5.56,13.83,9.73,21.6,12.51c7.77,2.78,15.62,4.17,23.54,4.17
			c4.65,0,8.7-0.42,12.17-1.26c3.47-0.84,6.36-2,8.68-3.49c2.32-1.49,4.06-3.24,5.2-5.26c1.14-2.02,1.71-4.21,1.71-6.57
			c0-3.2-0.91-6.06-2.74-8.57c-1.83-2.51-4.32-4.84-7.48-6.97c-3.16-2.13-6.91-4.19-11.25-6.17c-4.34-1.98-9.03-4-14.06-6.06
			c-12.8-5.33-22.34-11.84-28.62-19.54c-6.28-7.69-9.43-16.99-9.43-27.88c0-8.53,1.71-15.86,5.14-22c3.43-6.13,8.09-11.18,14-15.14
			c5.9-3.96,12.74-6.87,20.51-8.74c7.77-1.87,16-2.8,24.68-2.8c8.53,0,16.09,0.51,22.68,1.54c6.59,1.03,12.66,2.61,18.23,4.74v34.17
			c-2.74-1.9-5.73-3.58-8.97-5.03c-3.24-1.45-6.57-2.65-10-3.6c-3.43-0.95-6.84-1.66-10.23-2.11c-3.39-0.46-6.61-0.69-9.66-0.69
			c-4.19,0-8,0.4-11.43,1.2s-6.32,1.92-8.68,3.37c-2.36,1.45-4.19,3.18-5.48,5.2c-1.3,2.02-1.94,4.29-1.94,6.8
			c0,2.74,0.72,5.2,2.17,7.37c1.45,2.17,3.5,4.23,6.17,6.17c2.67,1.94,5.9,3.85,9.71,5.71c3.81,1.87,8.11,3.79,12.91,5.77
			c6.55,2.74,12.44,5.66,17.65,8.74c5.22,3.08,9.69,6.57,13.43,10.46c3.73,3.88,6.59,8.32,8.57,13.31
			c1.98,4.99,2.97,10.8,2.97,17.42c0,9.14-1.73,16.82-5.2,23.03c-3.47,6.21-8.17,11.24-14.11,15.08
			c-5.94,3.85-12.85,6.61-20.74,8.28c-7.88,1.67-16.21,2.51-24.97,2.51c-8.99,0-17.54-0.76-25.65-2.29
			C880.81,348.28,873.78,345.99,867.84,342.94z"/>
		<path class="st2" d="M1027.39,213.71c-6.1,0-11.08-1.81-14.97-5.43c-3.88-3.62-5.83-8.06-5.83-13.31c0-5.41,1.94-9.83,5.83-13.25
			c3.89-3.43,8.87-5.14,14.97-5.14c6.17,0,11.18,1.71,15.03,5.14c3.85,3.43,5.77,7.85,5.77,13.25c0,5.48-1.92,9.98-5.77,13.48
			C1038.56,211.96,1033.56,213.71,1027.39,213.71z M1045.21,349.23h-36.11V232.22h36.11V349.23z"/>
		<path class="st2" d="M1074.04,346.14v-29.25c5.94,3.58,11.86,6.25,17.77,8c5.9,1.75,11.48,2.63,16.74,2.63
			c6.4,0,11.44-0.88,15.14-2.63c3.69-1.75,5.54-4.42,5.54-8c0-2.29-0.84-4.19-2.51-5.71c-1.68-1.52-3.83-2.86-6.46-4
			c-2.63-1.14-5.5-2.17-8.63-3.08c-3.12-0.92-6.13-1.94-9.03-3.09c-4.65-1.75-8.74-3.64-12.28-5.66c-3.54-2.02-6.51-4.36-8.91-7.03
			c-2.4-2.67-4.23-5.75-5.49-9.25c-1.26-3.5-1.88-7.66-1.88-12.46c0-6.55,1.43-12.19,4.28-16.91c2.86-4.72,6.67-8.59,11.43-11.6
			c4.76-3.01,10.21-5.22,16.34-6.63c6.13-1.41,12.51-2.11,19.14-2.11c5.18,0,10.44,0.4,15.77,1.2c5.33,0.8,10.59,1.96,15.77,3.49
			v27.88c-4.57-2.67-9.47-4.67-14.68-6c-5.22-1.33-10.34-2-15.37-2c-2.36,0-4.59,0.21-6.68,0.63c-2.1,0.42-3.94,1.03-5.54,1.83
			c-1.6,0.8-2.86,1.83-3.77,3.09s-1.37,2.68-1.37,4.28c0,2.13,0.69,3.96,2.06,5.49c1.37,1.52,3.16,2.84,5.37,3.94
			c2.21,1.1,4.67,2.1,7.37,2.97c2.7,0.88,5.39,1.77,8.06,2.69c4.8,1.68,9.14,3.5,13.03,5.48c3.88,1.98,7.22,4.3,10,6.97
			c2.78,2.67,4.91,5.79,6.4,9.37c1.49,3.58,2.23,7.85,2.23,12.8c0,6.93-1.5,12.86-4.51,17.77c-3.01,4.91-7.01,8.91-12,12
			c-4.99,3.08-10.74,5.33-17.25,6.74c-6.51,1.41-13.27,2.11-20.28,2.11C1096.93,352.08,1085,350.1,1074.04,346.14z"/>
		<path class="st2" d="M1261.46,347.86c-5.33,2.82-13.37,4.23-24.11,4.23c-25.44,0-38.17-13.22-38.17-39.65v-53.59h-18.97v-26.62
			h18.97v-25.25l35.99-10.28v35.54h26.28v26.62h-26.28v47.31c0,12.19,4.84,18.28,14.51,18.28c3.81,0,7.73-1.1,11.77-3.31V347.86z"/>
		<path class="st2" d="M1392.09,301.01h-76.33c1.22,16.99,11.92,25.48,32.11,25.48c12.87,0,24.18-3.05,33.94-9.14v26.05
			c-10.82,5.79-24.87,8.68-42.16,8.68c-18.89,0-33.56-5.24-43.99-15.71c-10.44-10.47-15.65-25.08-15.65-43.82
			c0-19.43,5.64-34.81,16.91-46.16c11.27-11.35,25.14-17.03,41.59-17.03c17.06,0,30.26,5.07,39.59,15.2
			c9.33,10.13,14,23.88,14,41.25V301.01z M1358.62,278.84c0-16.76-6.78-25.14-20.34-25.14c-5.79,0-10.8,2.4-15.03,7.2
			c-4.23,4.8-6.8,10.78-7.71,17.94H1358.62z"/>
		<path class="st2" d="M1605.46,349.23h-35.99V282.5c0-16.99-6.25-25.48-18.74-25.48c-5.94,0-10.78,2.55-14.51,7.66
			c-3.73,5.1-5.6,11.47-5.6,19.08v65.47h-36.11v-67.42c0-16.53-6.13-24.8-18.4-24.8c-6.17,0-11.1,2.44-14.8,7.31
			c-3.7,4.88-5.54,11.5-5.54,19.88v65.02h-36.11V232.22h36.11v18.28h0.46c3.73-6.25,8.97-11.33,15.71-15.25
			c6.74-3.92,14.11-5.88,22.11-5.88c16.53,0,27.84,7.28,33.94,21.82c8.91-14.55,22.01-21.82,39.31-21.82
			c25.44,0,38.17,15.69,38.17,47.08V349.23z"/>
		<path class="st2" d="M1737.46,349.23h-34.17v-16.8h-0.46c-7.85,13.1-19.46,19.65-34.85,19.65c-11.35,0-20.28-3.22-26.79-9.66
			c-6.51-6.44-9.77-15.03-9.77-25.77c0-22.7,13.44-35.8,40.34-39.31l31.77-4.23c0-12.8-6.93-19.2-20.8-19.2
			c-13.94,0-27.2,4.15-39.76,12.46v-27.2c5.03-2.59,11.9-4.87,20.63-6.86c8.72-1.98,16.66-2.97,23.83-2.97
			c33.37,0,50.05,16.64,50.05,49.93V349.23z M1703.53,301.69v-7.88l-21.25,2.74c-11.73,1.52-17.6,6.82-17.6,15.88
			c0,4.11,1.43,7.48,4.29,10.11c2.86,2.63,6.72,3.94,11.6,3.94c6.78,0,12.3-2.34,16.57-7.03
			C1701.39,314.78,1703.53,308.85,1703.53,301.69z"/>
		<path class="st2" d="M1764.46,346.14v-29.25c5.94,3.58,11.86,6.25,17.77,8c5.9,1.75,11.48,2.63,16.74,2.63
			c6.4,0,11.44-0.88,15.14-2.63c3.69-1.75,5.54-4.42,5.54-8c0-2.29-0.84-4.19-2.51-5.71c-1.68-1.52-3.83-2.86-6.46-4
			c-2.63-1.14-5.5-2.17-8.63-3.08c-3.12-0.92-6.13-1.94-9.03-3.09c-4.65-1.75-8.74-3.64-12.28-5.66c-3.54-2.02-6.51-4.36-8.91-7.03
			c-2.4-2.67-4.23-5.75-5.49-9.25c-1.26-3.5-1.88-7.66-1.88-12.46c0-6.55,1.43-12.19,4.28-16.91c2.86-4.72,6.67-8.59,11.43-11.6
			c4.76-3.01,10.21-5.22,16.34-6.63c6.13-1.41,12.51-2.11,19.14-2.11c5.18,0,10.44,0.4,15.77,1.2c5.33,0.8,10.59,1.96,15.77,3.49
			v27.88c-4.57-2.67-9.47-4.67-14.68-6c-5.22-1.33-10.34-2-15.37-2c-2.36,0-4.59,0.21-6.68,0.63c-2.1,0.42-3.94,1.03-5.54,1.83
			c-1.6,0.8-2.86,1.83-3.77,3.09s-1.37,2.68-1.37,4.28c0,2.13,0.69,3.96,2.06,5.49c1.37,1.52,3.16,2.84,5.37,3.94
			c2.21,1.1,4.67,2.1,7.37,2.97c2.7,0.88,5.39,1.77,8.06,2.69c4.8,1.68,9.14,3.5,13.03,5.48c3.88,1.98,7.22,4.3,10,6.97
			c2.78,2.67,4.91,5.79,6.4,9.37c1.49,3.58,2.23,7.85,2.23,12.8c0,6.93-1.5,12.86-4.51,17.77c-3.01,4.91-7.01,8.91-12,12
			c-4.99,3.08-10.74,5.33-17.25,6.74c-6.51,1.41-13.27,2.11-20.28,2.11C1787.35,352.08,1775.43,350.1,1764.46,346.14z"/>
	</g>
</g>
</svg>
